<svg id="Layer_35" enable-background="new 0 0 64 64" height="512" viewBox="0 0 64 64" width="512" xmlns="http://www.w3.org/2000/svg"><g fill="#ff826e"><circle cx="52" cy="6" r="4"/><circle cx="32" cy="24" r="4"/><circle cx="12" cy="42" r="4"/></g><path d="m62 43v6l-2.49.64c-.32 1.18-.79 2.3-1.38 3.34l1.31 2.21-4.25 4.24-2.21-1.3c-1.04.59-2.16 1.06-3.34 1.38l-.64 2.49h-6l-.64-2.49c-1.18-.32-2.3-.79-3.34-1.38l-2.21 1.3-4.25-4.24 1.31-2.21c-.59-1.04-1.06-2.16-1.38-3.34l-2.49-.64v-6l2.49-.64c.23-.82.52-1.61.87-2.36h4.64c-1.26 1.67-2 3.75-2 6 0 5.52 4.48 10 10 10s10-4.48 10-10-4.48-10-10-10c-1.42 0-2.78.3-4 .83v-6.83h7l.64 2.49c1.18.32 2.3.79 3.34 1.38l2.21-1.31 4.25 4.25-1.31 2.21c.59 1.04 1.06 2.16 1.38 3.34z" fill="#ffc729"/><path d="m46 36c5.52 0 10 4.48 10 10s-4.48 10-10 10-10-4.48-10-10c0-2.25.74-4.33 2-6h2c1.1 0 2-.9 2-2v-1.17c1.22-.53 2.58-.83 4-.83zm4 10c0-2.21-1.79-4-4-4s-4 1.79-4 4 1.79 4 4 4 4-1.79 4-4z" fill="#fcd770"/><path d="m62 12v8c0 1.1-.9 2-2 2h-16c-1.1 0-2-.9-2-2v-8c0-1.1.9-2 2-2h8 8c1.1 0 2 .9 2 2z" fill="#e6e9ed"/><path d="m42 30v6.83 1.17c0 1.1-.9 2-2 2h-2-4.64-9.36c-1.1 0-2-.9-2-2v-8c0-1.1.9-2 2-2h8 8c1.1 0 2 .9 2 2z" fill="#e6e9ed"/><path d="m2 56v-8c0-1.1.9-2 2-2h8 8c1.1 0 2 .9 2 2v8c0 1.1-.9 2-2 2h-16c-1.1 0-2-.9-2-2z" fill="#e6e9ed"/><path d="m44 9c-1.654 0-3 1.346-3 3v8c0 1.654 1.346 3 3 3h16c1.654 0 3-1.346 3-3v-8c0-1.654-1.346-3-3-3h-4.026c.635-.838 1.026-1.87 1.026-3 0-2.757-2.243-5-5-5-2.414 0-4.434 1.721-4.899 4h-11.101c-2.757 0-5 2.243-5 5v9.101c-1.956.399-3.5 1.943-3.899 3.899h-11.101c-2.757 0-5 2.243-5 5v9.101c-2.279.465-4 2.485-4 4.899 0 1.13.391 2.162 1.026 3h-4.026c-1.654 0-3 1.346-3 3v8c0 1.654 1.346 3 3 3h16c1.654 0 3-1.346 3-3v-8c0-1.654-1.346-3-3-3h-4.026c.635-.838 1.026-1.87 1.026-3 0-2.414-1.721-4.434-4-4.899v-9.101c0-1.654 1.346-3 3-3h11.101c.152.743.482 1.416.924 2h-4.025c-1.654 0-3 1.346-3 3v8c0 1.654 1.346 3 3 3h7.88c-.063.177-.13.352-.186.532l-2.694.693v7.551l2.694.692c.269.864.614 1.698 1.03 2.492l-1.415 2.391 5.34 5.34 2.391-1.414c.795.416 1.63.762 2.493 1.03l.691 2.693h7.552l.691-2.693c.863-.269 1.697-.614 2.493-1.03l2.391 1.414 5.34-5.34-1.415-2.391c.416-.794.761-1.628 1.03-2.492l2.694-.693v-7.551l-2.694-.692c-.269-.864-.614-1.698-1.03-2.492l1.415-2.391-5.34-5.34-2.391 1.415c-.794-.417-1.629-.761-2.493-1.03l-.691-2.694h-6.96c-.414-1.161-1.514-2-2.816-2h-4.026c.635-.838 1.026-1.87 1.026-3 0-2.414-1.721-4.434-4-4.899v-9.101c0-1.654 1.346-3 3-3h11.101c.152.743.482 1.416.924 2zm-23 39v8c0 .552-.449 1-1 1h-16c-.551 0-1-.448-1-1v-8c0-.552.449-1 1-1h16c.551 0 1 .448 1 1zm-6-6c0 1.654-1.346 3-3 3s-3-1.346-3-3 1.346-3 3-3 3 1.346 3 3zm33.817-8.69.563.151c1.09.293 2.133.724 3.098 1.28l.506.292 2.049-1.213 3.146 3.146-1.212 2.051.292.506c.556.963.987 2.005 1.28 3.097l.152.563 2.309.592v4.449l-2.309.593-.152.563c-.293 1.092-.725 2.134-1.28 3.097l-.292.506 1.212 2.051-3.146 3.145-2.049-1.212-.506.292c-.966.557-2.008.988-3.097 1.28l-.564.151-.593 2.31h-4.448l-.593-2.31-.564-.151c-1.089-.292-2.131-.724-3.097-1.28l-.506-.292-2.049 1.212-3.146-3.145 1.212-2.051-.292-.506c-.556-.963-.987-2.005-1.28-3.097l-.152-.563-2.309-.592v-4.449l2.309-.593.152-.563c.149-.555.346-1.093.565-1.619h2.176c-.788 1.536-1.202 3.235-1.202 4.999 0 6.065 4.935 11 11 11s11-4.935 11-11-4.935-11-11-11c-1.027 0-2.029.151-3 .426v-4.426h5.224zm-5.817 4.69v-.478c.96-.34 1.965-.522 3-.522 4.962 0 9 4.037 9 9s-4.038 9-9 9-9-4.037-9-9c0-1.803.529-3.519 1.523-5h1.477c1.654 0 3-1.346 3-3zm-2-8v8c0 .552-.449 1-1 1h-16c-.551 0-1-.448-1-1v-8c0-.551.449-1 1-1h16c.551 0 1 .449 1 1zm-6-6c0 1.654-1.346 3-3 3s-3-1.346-3-3 1.346-3 3-3 3 1.346 3 3zm26-12v8c0 .551-.449 1-1 1h-16c-.551 0-1-.449-1-1v-8c0-.551.449-1 1-1h16c.551 0 1 .449 1 1zm-12-6c0-1.654 1.346-3 3-3s3 1.346 3 3-1.346 3-3 3-3-1.346-3-3z"/><path d="m45 13h14v2h-14z"/><path d="m45 17h14v2h-14z"/><path d="m25 31h14v2h-14z"/><path d="m25 35h14v2h-14z"/><path d="m5 49h14v2h-14z"/><path d="m5 53h14v2h-14z"/><path d="m46 51c2.757 0 5-2.243 5-5s-2.243-5-5-5-5 2.243-5 5 2.243 5 5 5zm0-8c1.654 0 3 1.346 3 3s-1.346 3-3 3-3-1.346-3-3 1.346-3 3-3z"/></svg>