<svg id="Capa_1" enable-background="new 0 0 512 512" height="512" viewBox="0 0 512 512" width="512" xmlns="http://www.w3.org/2000/svg"><g><g><g><g><g><g><g><path d="m268.779 175.591v146.467h175.821v-146.467c0-48.552-39.359-87.911-87.911-87.911-48.551 0-87.91 39.359-87.91 87.911z" fill="#8f818f"/></g></g><g><g><g><path d="m310.577 294.757s12.392-4.572 12.392-18.074v-46.453h67.441v46.452c0 13.484 12.392 18.074 12.392 18.074 22.704 4.953 101.225 27.816 101.225 107.153v102.591h-273.134c-11.897 0-21.541-9.644-21.541-21.541v-81.05c0-79.337 78.521-102.2 101.225-107.152z" fill="#ffeae1"/><path d="m432.807 304.294c-18.287 21.609-45.591 35.339-76.117 35.339s-57.83-13.731-76.117-35.339c-31.166 13.097-71.221 40.949-71.221 97.615v102.591h273.134c11.897 0 21.541-9.645 21.541-21.541v-81.05c0-56.666-40.055-84.518-71.22-97.615z" fill="#d5b0ec"/><path d="m432.807 304.294c-3.653 4.316-7.677 8.303-12.004 11.942 24.923 15.927 48.286 42.396 48.286 85.673v102.591h13.398c11.897 0 21.541-9.644 21.541-21.541v-81.05c-.001-56.666-40.056-84.518-71.221-97.615z" fill="#c995e4"/></g></g></g><g><g><g><path d="m424.704 176.307h-16.911v39.792h16.911c10.99 0 19.899-8.911 19.896-19.901-.002-10.986-8.909-19.891-19.896-19.891z" fill="#ffeae1"/></g><g><path d="m288.675 176.307h16.911v39.792h-16.911c-10.99 0-19.899-8.911-19.896-19.901.003-10.986 8.91-19.891 19.896-19.891z" fill="#ffdbcc"/></g><g><path d="m346.934 150.311c6.241 6.337 14.763 9.905 23.658 9.905h25.977c10.638 0 19.262 8.624 19.262 19.262v31.763c-.488 32.255-26.77 58.256-59.141 58.256-32.371 0-58.653-26.001-59.141-58.256v-40.693c0-15.927 12.912-28.839 28.839-28.839 7.724-.001 15.126 3.098 20.546 8.602z" fill="#ffeae1"/></g><g><path d="m396.569 160.215h-15.654v51.025c-.396 26.199-17.811 48.272-41.683 55.637 5.518 1.702 11.381 2.619 17.458 2.619 32.371 0 58.654-26.001 59.141-58.256v-31.763c0-10.638-8.624-19.262-19.262-19.262z" fill="#ffdbcc"/></g></g><path d="m356.69 87.68c48.552 0 87.911 39.359 87.911 87.911v19.89h-.018c-.381-10.653-9.132-19.174-19.878-19.174l-21.513.001c-44.965.002-81.418-36.449-81.418-81.414 10.703-4.638 22.508-7.214 34.916-7.214z" fill="#786e79"/></g></g><g><g><g><circle cx="103.736" cy="103.317" fill="#f0f0f3" r="95.762"/></g><g><circle cx="103.736" cy="77.98" fill="#ffdbcc" r="35.844"/><path d="m103.736 42.136c-6.357 0-12.322 1.662-17.499 4.564 10.944 6.136 18.345 17.841 18.345 31.28s-7.401 25.144-18.345 31.28c5.177 2.902 11.142 4.564 17.499 4.564 19.796 0 35.844-16.048 35.844-35.844s-16.048-35.844-35.844-35.844z" fill="#ffcbbe"/><path d="m140.181 191.872c11.383-4.685 21.378-11.312 29.765-19.339v-9.166c0-27.363-22.182-49.544-49.544-49.544h-33.333c-27.362 0-49.544 22.182-49.544 49.544v9.159c26.54 25.362 66.523 34.217 102.656 19.346z" fill="#7aabdc"/><path d="m120.402 113.823h-21.066c20.577 6.02 35.612 25.021 35.612 47.544v32.467c1.751-.606 3.498-1.248 5.233-1.962 11.383-4.685 21.378-11.312 29.765-19.339v-9.166c0-27.362-22.182-49.544-49.544-49.544z" fill="#5f98d5"/></g></g></g></g></g><g><path d="m363.912 485.638h-215.847v-137.606c0-7.467 6.053-13.521 13.521-13.521h188.805c7.467 0 13.521 6.053 13.521 13.521z" fill="#f0f0f3"/><path d="m350.391 334.511h-34.932c7.467 0 13.521 6.053 13.521 13.521v137.607h34.932v-137.608c0-7.467-6.054-13.52-13.521-13.52z" fill="#e0dde2"/><path d="m375.041 474.286h-238.106c-6.03 0-10.918 4.888-10.918 10.918 0 10.657 8.639 19.296 19.296 19.296h221.351c10.657 0 19.296-8.639 19.296-19.296 0-6.03-4.889-10.918-10.919-10.918z" fill="#7aabdc"/><path d="m385.96 485.204c0-6.03-4.888-10.918-10.918-10.918h-24.119c.005 5.361.008 10.352.008 10.918 0 10.657-8.639 19.296-19.296 19.296h35.03c10.655 0 19.295-8.639 19.295-19.296z" fill="#5f98d5"/><circle cx="255.988" cy="410.075" fill="#b2cbeb" r="18.904"/></g></g><g><path d="m452.1 305.325c0-18.774 0-112.972 0-129.734 0-52.609-42.801-95.409-95.41-95.409-52.831 0-95.41 43.037-95.41 95.409v65.824c0 4.142 3.357 7.5 7.5 7.5s7.5-3.357 7.5-7.5v-20.775c7.34 3.733 13.6 2.823 15.092 2.958 3.053 15.186 11.344 29.031 24.099 39.11v13.975c0 7.093-5.607 10.176-7.16 10.893-10.192 2.272-21.369 5.816-32.031 10.408v-21.54c0-4.142-3.357-7.5-7.5-7.5s-7.5 3.357-7.5 7.5v28.908c-10.012 5.577-20.129 12.671-29.108 21.659h-70.587c-11.591 0-21.021 9.43-21.021 21.02v50.535h-16.584c-7.027 0-12.744-5.717-12.744-12.745v-179.463c70.013-5.168 114.723-77.388 87.99-142.341-10.497-25.506-30.299-45.399-55.757-56.011-25.46-10.613-53.527-10.676-79.034-.179-52.653 21.671-77.86 82.137-56.189 134.79 15.494 37.647 50.468 60.973 87.99 63.741v179.464c0 15.298 12.446 27.744 27.743 27.744h16.585v53.22h-3.63c-10.156 0-18.418 8.262-18.418 18.419 0 14.775 12.021 26.795 26.796 26.795h337.174c16.013 0 29.04-13.028 29.04-29.041v-81.05c.001-43.911-22.276-75.852-59.426-96.584zm-429.984-168.417c-8.973-21.801-8.918-45.791.153-67.553 9.071-21.76 26.074-38.685 47.875-47.658 10.84-4.461 22.216-6.69 33.595-6.69 11.508 0 23.017 2.282 33.958 6.842 21.761 9.072 38.686 26.075 47.659 47.876 11.738 28.52 7.38 59.719-8.837 83.464-3.96-21.884-20.43-39.467-41.722-45.023 7.593-7.811 12.283-18.459 12.283-30.187 0-23.9-19.444-43.343-43.343-43.343s-43.344 19.443-43.344 43.343c0 11.728 4.69 22.376 12.283 30.187-21.31 5.561-37.791 23.17-41.732 45.08-3.464-5.069-6.436-10.527-8.828-16.338zm109.964-58.929c0 15.617-12.694 28.323-28.305 28.344h-.077c-15.611-.021-28.305-12.727-28.305-28.344 0-15.629 12.715-28.344 28.344-28.344s28.343 12.715 28.343 28.344zm-87.055 91.277v-5.888c0-23.184 18.861-42.045 42.044-42.045h33.333c23.183 0 42.044 18.861 42.044 42.045v5.852c-33.26 29.685-83.755 29.962-117.421.036zm388.447 35.712c-4.26 4.26-9.69 3.557-10.141 3.632v-24.792c1.116.011 1.689-.033 2.639.064h.002c10.522 1.072 14.767 13.825 7.5 21.096zm3.629 15.672v77.311c-12.776-5.502-24.357-8.667-32.048-10.378-1.473-.674-7.144-3.736-7.144-10.89v-13.974c12.749-10.073 21.045-23.918 24.1-39.11 1.534-.14 7.759.77 15.092-2.959zm-80.411-125.46c43.035 0 78.276 33.983 80.313 76.522-8.749-4.373-15.93-2.403-21.455-2.894-.003 0-.005 0-.008 0h-12.348c-38.665.002-71.125-29.975-73.729-68.874 8.507-3.071 17.673-4.754 27.227-4.754zm-66.64 113.419c-.615-.102-5.761.748-10.141-3.632-7.732-7.735-2.32-21.161 8.766-21.161h1.375zm.044-39.791c-.128.014-7.464-.229-13.717 2.928 1.305-27.51 16.495-51.445 38.705-64.93 1.284 9.645 4.124 18.918 8.396 27.531-18.108 1.443-32.519 16.209-33.384 34.471zm14.955 42.374v-40.634c0-14.782 14.79-25.223 28.829-19.968 29.802 36.954 71.821 32.753 74.454 33.228v27.375c-.454 28.024-23.608 50.814-51.641 50.814s-51.188-22.791-51.642-50.815zm8.132 90.607c6.421-2.378 17.288-10.341 17.288-25.106v-5.046c8.184 3.503 17.063 5.359 26.221 5.359s18.036-1.855 26.22-5.358v5.046c0 14.783 10.872 22.739 17.297 25.109 1.74.643 7.67 1.442 19.412 5.48-15.244 14.224-34.984 22.97-55.833 24.575-3.64-3.018-8.309-4.835-13.395-4.835h-24.006c-12.144-4.231-23.244-10.962-32.623-19.735 11.517-3.964 17.923-4.937 19.419-5.489zm-34.565 11.549c4.763 5.067 9.981 9.645 15.584 13.673h-39.035c7.289-5.358 15.234-9.891 23.451-13.673zm-123.052 34.693c0-3.32 2.701-6.021 6.022-6.021h188.805c3.32 0 6.021 2.701 6.021 6.021v118.755h-200.848zm211.099 148.97c-12.53 0-212.909 0-221.35 0-6.504 0-11.797-5.292-11.797-11.796 0-1.886 1.534-3.42 3.419-3.42h238.107c1.885 0 3.419 1.534 3.419 3.42-.001 6.504-5.293 11.796-11.798 11.796zm129.864-14.042c0 7.743-6.298 14.042-14.041 14.042h-25.071v-60.17c0-4.142-3.357-7.5-7.5-7.5-4.142 0-7.5 3.357-7.5 7.5v60.17h-51.701c1.754-3.562 2.744-7.565 2.744-11.796 0-10.157-8.262-18.419-18.418-18.419h-3.631v-118.755c0-.647-.04-1.285-.097-1.918 24.159-3.339 46.661-14.918 63.467-32.775 38.225 17.616 61.747 47.123 61.747 88.57v81.051z"/><path d="m255.988 383.671c-14.559 0-26.403 11.845-26.403 26.404s11.844 26.404 26.403 26.404 26.404-11.845 26.404-26.404-11.845-26.404-26.404-26.404zm0 37.808c-6.288 0-11.404-5.116-11.404-11.405s5.116-11.405 11.404-11.405c6.289 0 11.405 5.116 11.405 11.405s-5.116 11.405-11.405 11.405z"/></g></g></svg>