<?xml version="1.0" encoding="UTF-8" standalone="no"?>
<!DOCTYPE svg PUBLIC "-//W3C//DTD SVG 1.1//EN" "http://www.w3.org/Graphics/SVG/1.1/DTD/svg11.dtd">
<svg width="100%" height="100%" viewBox="0 0 368 368" version="1.1" xmlns="http://www.w3.org/2000/svg" xmlns:xlink="http://www.w3.org/1999/xlink" xml:space="preserve" xmlns:serif="http://www.serif.com/" style="fill-rule:evenodd;clip-rule:evenodd;stroke-linejoin:round;stroke-miterlimit:2;">
    <g>
        <g>
            <path d="M184,60C188.4,60 192,56.4 192,52L192,48C192,43.6 188.4,40 184,40C179.6,40 176,43.6 176,48L176,52C176,56.4 179.6,60 184,60Z" style="fill:white;fill-rule:nonzero;"/>
            <path d="M184,308C179.6,308 176,311.6 176,316L176,320C176,324.4 179.6,328 184,328C188.4,328 192,324.4 192,320L192,316C192,311.6 188.4,308 184,308Z" style="fill:white;fill-rule:nonzero;"/>
            <path d="M52,176L48,176C43.6,176 40,179.6 40,184C40,188.4 43.6,192 48,192L52,192C56.4,192 60,188.4 60,184C60,179.6 56.4,176 52,176Z" style="fill:white;fill-rule:nonzero;"/>
            <path d="M320,176L316,176C311.6,176 308,179.6 308,184C308,188.4 311.6,192 316,192L320,192C324.4,192 328,188.4 328,184C328,179.6 324.4,176 320,176Z" style="fill:white;fill-rule:nonzero;"/>
            <path d="M93.6,82.4C90.4,79.2 85.6,79.2 82.4,82.4C79.2,85.6 79.2,90.4 82.4,93.6L85.2,96.4C86.8,98 88.8,98.8 90.8,98.8C92.8,98.8 94.8,98 96.4,96.4C99.6,93.2 99.6,88.4 96.4,85.2L93.6,82.4Z" style="fill:white;fill-rule:nonzero;"/>
            <path d="M85.2,271.6L82.4,274.4C79.2,277.6 79.2,282.4 82.4,285.6C84,287.2 86,288 88,288C90,288 92,287.2 93.6,285.6L96.4,282.8C99.6,279.6 99.6,274.8 96.4,271.6C93.2,268.4 88.4,268.4 85.2,271.6Z" style="fill:white;fill-rule:nonzero;"/>
            <path d="M274.4,82.4L271.6,85.2C268.4,88.4 268.4,93.2 271.6,96.4C273.2,98 275.2,98.8 277.2,98.8C279.2,98.8 281.2,98 282.8,96.4L285.6,93.6C288.8,90.4 288.8,85.6 285.6,82.4C282.4,79.2 277.6,79.2 274.4,82.4Z" style="fill:white;fill-rule:nonzero;"/>
            <path d="M192,180.8L192,108C192,103.6 188.4,100 184,100C179.6,100 176,103.6 176,108L176,184C176,186 176.8,188 178.4,189.6L266,277.2C267.6,278.8 269.6,279.6 271.6,279.6C273.6,279.6 275.6,278.8 277.2,277.2C280.4,274 280.4,269.2 277.2,266L192,180.8Z" style="fill:white;fill-rule:nonzero;"/>
            <path d="M184,0C82.4,0 0,82.4 0,184C0,285.6 82.4,368 184,368C285.6,368 368,285.6 368,184C368,82.4 285.6,0 184,0ZM184,352C91.2,352 16,276.8 16,184C16,91.2 91.2,16 184,16C276.8,16 352,91.2 352,184C352,276.8 276.8,352 184,352Z" style="fill:white;fill-rule:nonzero;"/>
        </g>
    </g>
</svg>
