<?xml version="1.0" encoding="UTF-8" standalone="no"?>
<!DOCTYPE svg PUBLIC "-//W3C//DTD SVG 1.1//EN" "http://www.w3.org/Graphics/SVG/1.1/DTD/svg11.dtd">
<svg width="100%" height="100%" viewBox="0 0 486 513" version="1.1" xmlns="http://www.w3.org/2000/svg" xmlns:xlink="http://www.w3.org/1999/xlink" xml:space="preserve" xmlns:serif="http://www.serif.com/" style="fill-rule:evenodd;clip-rule:evenodd;stroke-linejoin:round;stroke-miterlimit:2;">
    <g transform="matrix(1,0,0,1,-13,0.00075)">
        <g id="XMLID_430_">
            <path id="XMLID_514_" d="M428.194,191L23,191C17.477,191 13,195.477 13,201L13,285.196C13,292.695 13.384,300.278 14.142,307.734C14.701,313.229 19.61,317.234 25.101,316.672C30.596,316.114 34.597,311.207 34.039,305.713C33.35,298.926 33,292.023 33,285.196L33,211L374.285,211L374.285,285.196C374.285,349.261 343.728,409.877 292.38,448L114.903,448C92.618,431.47 74.269,410.916 60.33,386.862C57.561,382.083 51.442,380.455 46.664,383.223C41.885,385.992 40.256,392.111 43.025,396.889C58.057,422.83 77.765,445.06 101.642,463.046L101.642,502C101.642,507.523 106.119,512 111.642,512L295.642,512C301.164,512 305.642,507.523 305.642,502L305.642,463.033C318.535,453.306 330.226,442.293 340.562,430.223L346.933,430.223C430.783,430.223 498.999,362.006 498.999,278.157L498.999,261.806C499,222.764 467.236,191 428.194,191ZM285.643,492L121.643,492L121.643,468L285.643,468L285.643,492ZM394.285,255L428.194,255C431.947,255 435,258.053 435,261.806L435,278.157C435,314.043 413.416,345.568 381.569,359.157C389.862,335.659 394.285,310.68 394.285,285.196L394.285,255ZM479,278.157C479,347.921 424.624,405.215 356.03,409.904C361.744,401.438 366.855,392.589 371.356,383.436C420.12,372.17 455,328.686 455,278.157L455,261.806C455,247.026 442.975,235 428.194,235L394.285,235L394.285,211L428.194,211C456.209,211 479,233.792 479,261.806L479,278.157Z" style="fill:white;fill-rule:nonzero;"/>
            <path id="XMLID_520_" d="M40.43,343.7C38.57,341.83 35.99,340.77 33.36,340.77C30.72,340.77 28.14,341.83 26.29,343.7C24.42,345.55 23.36,348.13 23.36,350.77C23.36,353.4 24.42,355.98 26.29,357.84C28.15,359.7 30.72,360.77 33.36,360.77C35.99,360.77 38.57,359.7 40.43,357.84C42.29,355.98 43.36,353.4 43.36,350.77C43.36,348.13 42.29,345.56 40.43,343.7Z" style="fill:white;fill-rule:nonzero;"/>
            <path id="XMLID_521_" d="M245.421,108.189C245.421,117.881 241.647,126.993 234.793,133.847C230.888,137.752 230.887,144.084 234.793,147.989C236.746,149.942 239.305,150.918 241.864,150.918C244.423,150.918 246.983,149.941 248.935,147.989C259.566,137.358 265.421,123.223 265.421,108.188C265.421,93.153 259.567,79.019 248.935,68.387C242.081,61.533 238.307,52.422 238.307,42.729C238.307,33.036 242.081,23.924 248.935,17.071C252.84,13.166 252.84,6.834 248.935,2.928C245.03,-0.977 238.698,-0.977 234.792,2.928C224.161,13.559 218.306,27.694 218.306,42.729C218.306,57.764 224.161,71.898 234.792,82.53C241.646,89.384 245.421,98.496 245.421,108.189Z" style="fill:white;fill-rule:nonzero;"/>
            <path id="XMLID_522_" d="M168.98,128.189C168.98,137.881 165.206,146.993 158.352,153.847C154.447,157.752 154.446,164.084 158.352,167.989C160.305,169.942 162.864,170.918 165.423,170.918C167.982,170.918 170.542,169.941 172.494,167.989C183.125,157.358 188.98,143.223 188.98,128.188C188.98,113.153 183.125,99.019 172.494,88.387C158.346,74.24 158.346,51.219 172.494,37.071C176.399,33.166 176.399,26.834 172.494,22.929C168.589,19.024 162.257,19.024 158.352,22.929C136.407,44.875 136.407,80.584 158.352,102.53C165.205,109.384 168.98,118.496 168.98,128.189Z" style="fill:white;fill-rule:nonzero;"/>
        </g>
    </g>
</svg>
